<svg xmlns="http://www.w3.org/2000/svg" viewBox="0 0 420 420" role="img" aria-label="Smile Bloom logo">
  <defs>
    <linearGradient id="toothFill" x1="0" y1="0" x2="1" y2="1">
      <stop offset="0%" stop-color="#0f5d88"/>
      <stop offset="100%" stop-color="#2e9ac7"/>
    </linearGradient>
  </defs>
  <circle cx="210" cy="210" r="196" fill="#ffffff"/>
  <circle cx="210" cy="210" r="182" fill="#ffffff" stroke="#d4dde3" stroke-width="6"/>
  <text x="210" y="88" text-anchor="middle" font-family="Segoe UI, Arial, sans-serif" font-size="46" font-weight="800" fill="#11151a" letter-spacing="3">SMILE BLOOM</text>
  <text x="210" y="338" text-anchor="middle" font-family="Segoe UI, Arial, sans-serif" font-size="21" fill="#11151a" letter-spacing="1">DENTAL AND FACIAL AESTHETICS</text>
  <circle cx="210" cy="205" r="86" fill="#f4fbff" stroke="#c7d9e8" stroke-width="5"/>
  <path d="M210 136c40 0 71 28 71 66 0 45-32 97-71 124-39-27-71-79-71-124 0-38 31-66 71-66z" fill="url(#toothFill)"/>
  <path d="M210 153c20 0 35 14 35 34 0 24-16 51-35 67-19-16-35-43-35-67 0-20 15-34 35-34z" fill="#0a3d5b" opacity="0.28"/>
  <circle cx="117" cy="210" r="7" fill="#2e9ac7"/>
  <circle cx="303" cy="210" r="7" fill="#2e9ac7"/>
</svg>